<svg width="138" height="44" viewBox="0 0 138 44" fill="none" xmlns="http://www.w3.org/2000/svg">
<path d="M11.1376 33.36C9.91096 33.36 8.71763 33.2 7.55763 32.88C6.39763 32.56 5.15096 32.06 3.81763 31.38L2.43763 33H1.19763L0.417627 22.86L2.07763 22.6C2.93096 25.5733 4.05763 27.7267 5.45763 29.06C6.87096 30.3933 8.74429 31.06 11.0776 31.06C12.7443 31.06 14.071 30.66 15.0576 29.86C16.0576 29.06 16.5576 27.96 16.5576 26.56C16.5576 25.72 16.2043 24.94 15.4976 24.22C14.8043 23.4867 13.6043 22.7067 11.8976 21.88L8.67763 20.28C6.06429 18.9867 4.14429 17.5533 2.91763 15.98C1.69096 14.4067 1.07763 12.5733 1.07763 10.48C1.07763 8.86667 1.52429 7.43333 2.41763 6.18C3.31096 4.91333 4.51763 3.92 6.03763 3.2C7.57096 2.48 9.30429 2.12 11.2376 2.12C13.9443 2.12 16.2643 2.94 18.1976 4.58L19.1376 2.48H20.4576L20.8376 11.24H19.0976C18.4443 8.98667 17.4843 7.29333 16.2176 6.16C14.9643 5.02667 13.371 4.46 11.4376 4.46C10.0776 4.46 9.01763 4.79333 8.25763 5.46C7.49763 6.12667 7.11763 7.04667 7.11763 8.22C7.11763 9.12667 7.45763 9.94 8.13763 10.66C8.81763 11.3667 9.99763 12.1467 11.6776 13L14.8376 14.62C17.3443 15.9 19.1443 17.3067 20.2376 18.84C21.3443 20.3733 21.8976 22.2133 21.8976 24.36C21.8976 26.0667 21.4243 27.6 20.4776 28.96C19.531 30.32 18.2443 31.3933 16.6176 32.18C14.991 32.9667 13.1643 33.36 11.1376 33.36ZM33.2836 33.42C31.2302 33.42 29.7702 32.9733 28.9036 32.08C28.0369 31.1867 27.6036 29.7533 27.6036 27.78V14H24.8036L24.5636 12.78L32.5436 6.7L33.7636 6.9V12.02H39.8836L39.3036 14H33.7636V27.38C33.7636 29.5 34.5902 30.56 36.2436 30.56C36.7102 30.56 37.1502 30.48 37.5636 30.32C37.9769 30.16 38.3569 29.8733 38.7036 29.46L39.6236 30.74C38.9302 31.62 38.0302 32.2867 36.9236 32.74C35.8169 33.1933 34.6036 33.42 33.2836 33.42ZM45.4573 43.3C44.164 43.3 43.0573 43.0133 42.1373 42.44C41.2306 41.8667 40.7773 41.0133 40.7773 39.88C40.7773 39.12 41.0306 38.5133 41.5373 38.06C42.044 37.6067 42.644 37.38 43.3373 37.38C43.924 37.38 44.444 37.5467 44.8973 37.88C45.364 38.2133 45.6973 38.72 45.8973 39.4C46.084 40.0267 46.264 40.4333 46.4373 40.62C46.6106 40.82 46.8773 40.92 47.2373 40.92C47.704 40.92 48.164 40.6867 48.6173 40.22C49.0706 39.7533 49.444 39.1133 49.7373 38.3L51.2973 34.1L42.8573 15C42.6306 14.4933 42.2906 14.1267 41.8373 13.9C41.384 13.66 40.664 13.4933 39.6773 13.4V12.02H52.5973V13.4C51.7573 13.4667 51.1106 13.5733 50.6573 13.72C50.2173 13.8667 49.944 14.0733 49.8373 14.34C49.7306 14.6067 49.764 14.9533 49.9373 15.38L54.5373 26.22H54.7373L58.7173 16.54C59.1706 15.5133 59.1706 14.7533 58.7173 14.26C58.2773 13.7667 57.344 13.48 55.9173 13.4V12.02H65.4373V13.4C64.464 13.5867 63.7173 13.7933 63.1973 14.02C62.6773 14.2467 62.2706 14.56 61.9773 14.96C61.684 15.3467 61.3906 15.8867 61.0973 16.58L51.9773 38.58C51.604 39.4467 51.204 40.18 50.7773 40.78C50.3506 41.38 49.884 41.8733 49.3773 42.26C48.404 42.9533 47.0973 43.3 45.4573 43.3ZM64.9933 33V31.6L68.3933 30.82V4.06L64.9933 3V2.04L73.6533 0.139997H74.4933V30.82L77.6733 31.6V33H64.9933ZM79.3748 33V31.6L82.7548 30.82V15.54L79.3748 14.46V13.52L88.0548 11.62H88.8948V30.82L92.0548 31.6V33H79.3748ZM85.7548 8.66C84.6615 8.66 83.8215 8.32 83.2348 7.64C82.6481 6.96 82.3548 6.22 82.3548 5.42C82.3548 4.55333 82.6548 3.78666 83.2548 3.12C83.8681 2.45333 84.7015 2.12 85.7548 2.12C86.8348 2.12 87.6881 2.45333 88.3148 3.12C88.9548 3.78666 89.2748 4.55333 89.2748 5.42C89.2748 6.22 88.9748 6.96 88.3748 7.64C87.7881 8.32 86.9148 8.66 85.7548 8.66ZM101.073 33.42C100.059 33.42 98.986 33.34 97.8526 33.18C96.7193 33.0333 95.746 32.8267 94.9326 32.56L94.6726 26.12H96.3726C96.4926 27.84 96.9393 29.16 97.7126 30.08C98.4993 30.9867 99.5793 31.44 100.953 31.44C101.979 31.44 102.799 31.18 103.413 30.66C104.026 30.1267 104.333 29.4333 104.333 28.58C104.333 27.9133 104.093 27.32 103.613 26.8C103.146 26.2667 102.346 25.7 101.213 25.1L99.2926 24.12C97.7193 23.2933 96.5593 22.3733 95.8126 21.36C95.0793 20.3467 94.7126 19.14 94.7126 17.74C94.7126 15.7267 95.446 14.2067 96.9126 13.18C98.3926 12.14 100.566 11.62 103.433 11.62C104.446 11.62 105.419 11.6867 106.353 11.82C107.299 11.94 108.059 12.1067 108.633 12.32V17.8H107.113C106.726 15 105.406 13.6 103.153 13.6C102.246 13.6 101.513 13.82 100.953 14.26C100.406 14.7 100.133 15.2733 100.133 15.98C100.133 16.6067 100.379 17.1733 100.873 17.68C101.366 18.1733 102.219 18.7133 103.433 19.3L105.333 20.28C106.813 21.04 107.906 21.9333 108.613 22.96C109.319 23.9733 109.673 25.2 109.673 26.64C109.673 28.7733 108.919 30.44 107.413 31.64C105.906 32.8267 103.793 33.42 101.073 33.42ZM111.987 33V31.6L114.947 30.82V4.1L111.967 3V2.08L120.247 0.139997H121.107V30.82L123.867 31.6V33H111.987ZM126.047 33V31.6L128.827 30.82V19.98C128.827 18.3533 128.501 17.1533 127.847 16.38C127.194 15.5933 126.214 15.2 124.907 15.2C124.094 15.2 123.334 15.36 122.627 15.68C121.921 16 121.254 16.44 120.627 17V14.5C121.654 13.7 122.867 13.02 124.267 12.46C125.681 11.9 127.127 11.62 128.607 11.62C132.847 11.62 134.967 13.94 134.967 18.58V30.82L137.947 31.6V33H126.047Z" fill="#F83758"/>
</svg>
